<svg width="1280" height="287" viewBox="0 0 1280 287" fill="none" xmlns="http://www.w3.org/2000/svg">
<g clip-path="url(#clip0_746_20549)">
<path d="M166.842 147.06C174.412 144.6 183.002 146.84 189.462 151.48L204.583 162.35C211.955 167.644 220.354 171.336 229.239 173.188C238.125 175.039 247.299 175.009 256.172 173.1L286.172 166.64C287.377 159.07 287.976 151.415 287.962 143.75L251.512 151.6C245.642 152.863 239.573 152.884 233.694 151.659C227.816 150.434 222.26 147.992 217.382 144.49L211.282 140.11C208.842 138.358 206.105 137.063 203.203 136.29L283.893 110.07C283.033 106.53 282.033 103 280.893 99.48C279.753 95.96 278.486 92.5167 277.092 89.15L228.882 104.81C231.001 102.168 232.688 99.2085 233.882 96.04L237.802 85.65C238.956 82.5701 240.706 79.7481 242.953 77.3457C245.199 74.9434 247.897 73.0078 250.893 71.65L264.692 65.41C260.584 59.085 255.979 53.0962 250.922 47.5L241.822 51.61C230.467 56.7489 221.619 66.1876 217.223 77.85L208.223 101.62C206.905 105.137 204.812 108.311 202.099 110.908C199.386 113.505 196.123 115.457 192.552 116.62L160.292 127.1L153.942 129.17V123.17C153.942 115.17 158.722 107.74 165.132 103.03L180.132 92.03C187.446 86.6555 193.553 79.8089 198.061 71.931C202.568 64.0532 205.375 55.3187 206.302 46.29L209.433 15.73C202.63 12.2608 195.561 9.34149 188.292 6.99999L184.493 44.1C183.88 50.0728 182.023 55.8511 179.042 61.0629C176.06 66.2746 172.021 70.8042 167.183 74.36L161.132 78.8C158.71 80.5785 156.632 82.7847 155.002 85.31V0.409988C151.376 0.143322 147.709 0.00665508 144.002 -1.15825e-05C140.296 -0.00667825 136.629 0.129988 133.002 0.409988V51.1C131.136 48.2818 128.842 45.7716 126.203 43.66L117.522 36.72C112.359 32.5842 109.04 26.5735 108.293 20L106.623 4.99999C99.3384 6.95272 92.2196 9.47722 85.3325 12.55L86.4326 22.48C87.8089 34.8684 94.0494 46.2029 103.782 53.99L123.623 69.86C126.536 72.1916 128.891 75.1461 130.514 78.5065C132.137 81.8669 132.988 85.5481 133.002 89.28V129.88L127.382 128.06C119.812 125.6 114.183 118.74 111.683 111.18L105.833 93.5C102.978 84.8872 98.3513 76.9675 92.251 70.2506C86.1507 63.5337 78.7116 58.1684 70.4126 54.5L42.3223 42.08C36.8923 47.4881 31.9095 53.3272 27.4224 59.54L61.5225 74.62C67.0133 77.048 71.9349 80.599 75.9702 85.0443C80.0056 89.4896 83.0655 94.7306 84.9527 100.43L87.3023 107.55C88.2466 110.406 89.7041 113.066 91.6026 115.4L10.9126 89.18C9.53262 92.5467 8.26925 95.99 7.12258 99.51C5.97591 103.03 4.97591 106.56 4.12258 110.1L52.3325 125.76C49.0742 126.668 45.9769 128.079 43.1524 129.94L33.8623 136.04C28.3267 139.681 21.5723 140.976 15.0825 139.64L0.252462 136.58C-0.144444 144.111 0.056282 151.661 0.852559 159.16L10.6323 161.16C22.8395 163.681 35.5481 161.249 45.9624 154.4L67.1826 140.4C70.3142 138.34 73.8689 137.011 77.5835 136.511C81.2982 136.011 85.0777 136.352 88.6426 137.51L120.853 148L127.203 150.07L123.732 154.85C119.052 161.28 110.783 164.52 102.833 164.56L84.2124 164.66C75.1354 164.71 66.1696 166.66 57.8921 170.385C49.6146 174.111 42.2088 179.529 36.1524 186.29L15.6524 209.17C19.12 216.005 23.133 222.55 27.6524 228.74L52.5122 201C56.5192 196.529 61.4184 192.947 66.8936 190.484C72.3688 188.021 78.2987 186.732 84.3023 186.7H91.8023C94.8085 186.682 97.7866 186.12 100.592 185.04L50.7227 253.68C53.5027 256.033 56.389 258.3 59.3823 260.48C62.3757 262.66 65.4225 264.703 68.5225 266.61L98.3125 225.61C98.1738 228.982 98.5548 232.354 99.4424 235.61L102.382 246.32C103.254 249.488 103.492 252.797 103.084 256.057C102.675 259.317 101.628 262.465 100.002 265.32L92.5025 278.47C99.5451 281.176 106.791 283.319 114.172 284.88L119.112 276.2C125.279 265.368 126.891 252.53 123.592 240.51L116.873 216.01C115.881 212.396 115.716 208.605 116.387 204.918C117.059 201.231 118.551 197.743 120.752 194.71L140.692 167.27L144.623 161.86L148.092 166.64C152.772 173.07 153.293 181.94 150.873 189.51L145.212 207.26C142.455 215.908 141.539 225.037 142.524 234.061C143.51 243.084 146.374 251.801 150.933 259.65L166.362 286.21C173.93 285.02 181.39 283.227 188.672 280.85L170.002 248.61C166.991 243.425 165.097 237.667 164.443 231.707C163.788 225.746 164.388 219.715 166.203 214L168.482 206.86C169.396 203.997 169.778 200.991 169.612 197.99L219.482 266.62C222.582 264.713 225.629 262.673 228.623 260.5C231.616 258.327 234.502 256.06 237.282 253.7L207.482 212.7C210.656 213.873 213.993 214.547 217.373 214.7L228.462 215.22C235.085 215.526 241.315 218.451 245.782 223.35L256.002 234.5C260.746 228.639 265.019 222.413 268.782 215.88L262.002 208.5C257.846 203.937 252.831 200.237 247.244 197.611C241.657 194.986 235.608 193.487 229.442 193.2L204.103 192C200.354 191.834 196.69 190.827 193.384 189.053C190.077 187.278 187.213 184.782 185.002 181.75L165.072 154.31L161.143 148.9L166.842 147.06Z" fill="black"/>
<path d="M390.42 231.17L402.54 198.8H478.12L490.24 231.17H521.61L456 63.45H425.35L360 231.17H390.42ZM440.57 98.8799L468.57 172.82H412.01L440.01 98.8799H440.57Z" fill="black"/>
<path d="M558.108 231.17V54H529.828V231.17H558.108Z" fill="black"/>
<path d="M684.732 160.77C684.732 140.93 695.662 129.83 712.542 129.83C729.652 129.83 735.833 141.83 735.833 157.7V231.17H764.112V154.17C764.112 126.29 748.902 105.74 719.192 105.74C700.192 105.74 686.872 113.3 677.362 125.11C670.472 113.3 658.112 105.74 640.292 105.74C620.562 105.74 608.683 115.19 603.453 124.88V108.58H577.312V231.18H605.592V159.83C605.592 141.17 616.293 129.83 633.163 129.83C650.033 129.83 656.453 141.64 656.453 157.7V231.17H684.732V160.77Z" fill="black"/>
<path d="M861.26 173.53V181.32C861.26 197.86 850.09 212.03 827.26 212.03C813.71 212.03 805.391 207.54 805.391 195.97C805.391 187.46 811.101 181.09 828.451 178.49L861.26 173.53ZM821.581 234C841.301 234 855.58 227.62 863.88 215.1C863.88 225.02 865.301 231.17 865.541 231.17H892.4C890.26 226.17 888.831 216.05 888.831 208.02V151.56C888.831 123.45 871.721 105.73 835.601 105.73C798.281 105.73 783.55 125.57 781.17 147.07H808.741C810.641 135.73 819.44 128.88 834.88 128.88C851.76 128.88 861.26 136.44 861.26 151.32V153.21L825.61 158.21C793.06 162.7 778.32 176.21 778.32 196.95C778.32 217.94 790.921 234 821.581 234Z" fill="black"/>
<path d="M936.642 108.57H910.492V231.17H938.772V160.06C938.772 140.93 949.952 129.83 967.772 129.83C984.642 129.83 992.252 140.93 992.252 157.7V231.17H1020.53V154.17C1020.53 125.58 1004.61 105.74 974.662 105.74C954.462 105.74 941.862 115.19 936.662 124.88L936.642 108.57Z" fill="black"/>
<path d="M1117.86 173.53V181.32C1117.86 197.86 1106.69 212.03 1083.86 212.03C1070.32 212.03 1062 207.54 1062 195.97C1062 187.46 1067.7 181.09 1085.05 178.49L1117.86 173.53ZM1078.17 234C1097.9 234 1112.17 227.62 1120.47 215.1C1120.47 225.02 1121.9 231.17 1122.14 231.17H1149C1146.86 226.17 1145.44 216.05 1145.44 208.02V151.56C1145.44 123.45 1128.33 105.73 1092.2 105.73C1054.89 105.73 1040.2 125.57 1037.78 147.07H1065.35C1067.25 135.73 1076.04 128.88 1091.49 128.88C1108.36 128.88 1117.87 136.44 1117.87 151.32V153.21L1082.22 158.21C1049.66 162.7 1034.93 176.21 1034.93 196.95C1034.92 217.94 1047.51 234 1078.17 234Z" fill="black"/>
<path d="M1159 170C1159 205.44 1184.19 234 1220.55 234C1257.15 234 1275.69 208.72 1279.01 186.76H1250.01C1246.68 199.98 1235.51 209.2 1220.3 209.2C1200.1 209.2 1187.3 192.9 1187.3 169.98C1187.3 146.83 1200.13 130.54 1220.3 130.54C1235.51 130.54 1246.68 139.75 1250.01 152.98H1279.01C1275.69 130.98 1257.15 105.73 1220.55 105.73C1184.2 105.73 1159 134.32 1159 170Z" fill="black"/>
</g>
<defs>
<clipPath id="clip0_746_20549">
<rect width="1279.02" height="286.22" fill="white"/>
</clipPath>
</defs>
</svg>
